<svg width="52" height="52" viewBox="0 0 52 52" fill="none" xmlns="http://www.w3.org/2000/svg">
<path d="M26.0001 46.6667H7.91675C7.23161 46.6667 6.57452 46.3945 6.09006 45.91C5.60559 45.4256 5.33341 44.7685 5.33341 44.0834V7.91669C5.33341 7.23154 5.60559 6.57446 6.09006 6.08999C6.57452 5.60553 7.23161 5.33335 7.91675 5.33335H20.8334V13.0834C20.8334 15.1388 21.6499 17.11 23.1033 18.5634C24.5567 20.0168 26.528 20.8334 28.5834 20.8334H36.3334V23.4167C36.3334 24.1018 36.6056 24.7589 37.0901 25.2434C37.5745 25.7278 38.2316 26 38.9167 26C39.6019 26 40.259 25.7278 40.7434 25.2434C41.2279 24.7589 41.5001 24.1018 41.5001 23.4167V18.25C41.5001 18.25 41.5001 18.25 41.5001 18.095C41.4732 17.8577 41.4212 17.6239 41.3451 17.3975V17.165C41.2209 16.8994 41.0552 16.6552 40.8542 16.4417L25.3542 0.941687C25.1407 0.740745 24.8965 0.575063 24.6309 0.450853C24.5538 0.439901 24.4755 0.439901 24.3984 0.450853C24.136 0.300352 23.8462 0.203743 23.5459 0.166687H7.91675C5.86132 0.166687 3.89008 0.983203 2.43667 2.43661C0.983264 3.89002 0.166748 5.86126 0.166748 7.91669V44.0834C0.166748 46.1388 0.983264 48.11 2.43667 49.5634C3.89008 51.0168 5.86132 51.8334 7.91675 51.8334H26.0001C26.6852 51.8334 27.3423 51.5612 27.8268 51.0767C28.3112 50.5922 28.5834 49.9352 28.5834 49.25C28.5834 48.5649 28.3112 47.9078 27.8268 47.4233C27.3423 46.9389 26.6852 46.6667 26.0001 46.6667ZM26.0001 8.97585L32.6909 15.6667H28.5834C27.8983 15.6667 27.2412 15.3945 26.7567 14.91C26.2723 14.4256 26.0001 13.7685 26.0001 13.0834V8.97585ZM13.0834 15.6667C12.3983 15.6667 11.7412 15.9389 11.2567 16.4233C10.7723 16.9078 10.5001 17.5649 10.5001 18.25C10.5001 18.9352 10.7723 19.5922 11.2567 20.0767C11.7412 20.5612 12.3983 20.8334 13.0834 20.8334H15.6667C16.3519 20.8334 17.009 20.5612 17.4934 20.0767C17.9779 19.5922 18.2501 18.9352 18.2501 18.25C18.2501 17.5649 17.9779 16.9078 17.4934 16.4233C17.009 15.9389 16.3519 15.6667 15.6667 15.6667H13.0834ZM51.0842 47.4159L48.0617 44.4192C49.0278 42.7329 49.4145 40.7765 49.1625 38.8495C48.9106 36.9225 48.0339 35.1312 46.6667 33.75C45.4087 32.4472 43.7875 31.5534 42.0142 31.1851C40.241 30.8169 38.3979 30.9912 36.7252 31.6854C35.0524 32.3796 33.6275 33.5615 32.6361 35.0771C31.6446 36.5927 31.1326 38.3718 31.1667 40.1825C31.1579 41.7407 31.5565 43.2742 32.3231 44.6309C33.0897 45.9875 34.1977 47.1202 35.5371 47.9165C36.8765 48.7128 38.4008 49.1452 39.9588 49.1706C41.5169 49.1961 43.0545 48.8138 44.4192 48.0617L47.4159 51.0842C47.6561 51.3263 47.9418 51.5185 48.2566 51.6497C48.5714 51.7808 48.909 51.8483 49.2501 51.8483C49.5911 51.8483 49.9288 51.7808 50.2436 51.6497C50.5584 51.5185 50.8441 51.3263 51.0842 51.0842C51.3264 50.844 51.5186 50.5583 51.6497 50.2435C51.7809 49.9287 51.8484 49.591 51.8484 49.25C51.8484 48.909 51.7809 48.5713 51.6497 48.2565C51.5186 47.9417 51.3264 47.656 51.0842 47.4159ZM42.8951 42.895C42.1572 43.5889 41.1825 43.9752 40.1697 43.9752C39.1568 43.9752 38.1821 43.5889 37.4442 42.895C36.7331 42.1712 36.3343 41.1973 36.3334 40.1825C36.3281 39.673 36.426 39.1676 36.6214 38.697C36.8167 38.2263 37.1055 37.8002 37.4701 37.4442C38.1588 36.7592 39.0825 36.362 40.0534 36.3334C40.5757 36.3013 41.099 36.3774 41.5904 36.5571C42.0819 36.7368 42.5309 37.0161 42.9093 37.3776C43.2877 37.739 43.5873 38.1747 43.7894 38.6574C43.9914 39.1401 44.0915 39.6593 44.0834 40.1825C44.062 41.2084 43.6347 42.1838 42.8951 42.895ZM28.5834 26H13.0834C12.3983 26 11.7412 26.2722 11.2567 26.7567C10.7723 27.2411 10.5001 27.8982 10.5001 28.5834C10.5001 29.2685 10.7723 29.9256 11.2567 30.41C11.7412 30.8945 12.3983 31.1667 13.0834 31.1667H28.5834C29.2686 31.1667 29.9256 30.8945 30.4101 30.41C30.8946 29.9256 31.1667 29.2685 31.1667 28.5834C31.1667 27.8982 30.8946 27.2411 30.4101 26.7567C29.9256 26.2722 29.2686 26 28.5834 26ZM23.4167 41.5C24.1019 41.5 24.759 41.2278 25.2434 40.7434C25.7279 40.2589 26.0001 39.6018 26.0001 38.9167C26.0001 38.2315 25.7279 37.5745 25.2434 37.09C24.759 36.6055 24.1019 36.3334 23.4167 36.3334H13.0834C12.3983 36.3334 11.7412 36.6055 11.2567 37.09C10.7723 37.5745 10.5001 38.2315 10.5001 38.9167C10.5001 39.6018 10.7723 40.2589 11.2567 40.7434C11.7412 41.2278 12.3983 41.5 13.0834 41.5H23.4167Z" fill="#030319" fill-opacity="0.4"/>
</svg>
